<?xml version="1.0" encoding="UTF-8" standalone="no"?>
<!-- Generator: Adobe Illustrator 23.0.6, SVG Export Plug-In . SVG Version: 6.00 Build 0)  -->

<svg
   version="1.1"
   id="Layer_1"
   x="0px"
   y="0px"
   viewBox="0 0 155.21 21.12"
   style="enable-background:new 0 0 155.21 21.12;"
   xml:space="preserve"
   sodipodi:docname="logo.svg"
   inkscape:version="1.3 (0e150ed6c4, 2023-07-21)"
   xmlns:inkscape="http://www.inkscape.org/namespaces/inkscape"
   xmlns:sodipodi="http://sodipodi.sourceforge.net/DTD/sodipodi-0.dtd"
   xmlns="http://www.w3.org/2000/svg"
   xmlns:svg="http://www.w3.org/2000/svg"><defs
   id="defs1" /><sodipodi:namedview
   id="namedview1"
   pagecolor="#ffffff"
   bordercolor="#000000"
   borderopacity="0.25"
   inkscape:showpageshadow="2"
   inkscape:pageopacity="0.0"
   inkscape:pagecheckerboard="0"
   inkscape:deskcolor="#d1d1d1"
   inkscape:zoom="8.2436695"
   inkscape:cx="70.781586"
   inkscape:cy="27.475628"
   inkscape:window-width="3840"
   inkscape:window-height="2066"
   inkscape:window-x="2293"
   inkscape:window-y="8"
   inkscape:window-maximized="1"
   inkscape:current-layer="text1" />&#10;<style
   type="text/css"
   id="style1">&#10;	.st0{fill:#49494B;}&#10;</style>&#10;&#10;<g
   id="text1"><path
     style="color:#000000;-inkscape-font-specification:'Sans, Bold';fill:#f5f7f9;-inkscape-stroke:none"
     d="M 44.559699,18.207989 H 41.33837 v -6.570657 h -6.037323 v 6.570657 H 32.079718 V 2.9760128 h 3.221329 V 8.9493367 H 41.33837 V 2.9760128 h 3.221329 z m 13.162633,0 L 56.613,14.581328 h -5.546658 l -1.109331,3.626661 H 46.479683 L 51.855674,2.9120129 h 3.946661 L 61.19966,18.207989 Z M 55.845001,11.871999 54.73567,8.330671 Q 54.629003,7.9680049 54.458337,7.4133391 54.287671,6.8586733 54.117004,6.2826742 53.946338,5.7066752 53.839671,5.2800092 53.733005,5.7066752 53.541005,6.3466741 53.370339,6.9653398 53.199672,7.5413389 53.050339,8.0960047 52.965006,8.330671 l -1.087998,3.541328 z M 75.108988,18.207989 71.43966,6.2613409 h -0.08533 q 0.02133,0.426666 0.064,1.279998 0.04267,0.853332 0.08533,1.8346638 0.04267,0.9813313 0.04267,1.7493303 v 7.082656 H 68.666331 V 2.9760128 h 4.39466 l 3.605327,11.6479812 h 0.064 L 80.548979,2.9760128 h 4.39466 V 18.207989 h -3.007996 v -7.210656 q 0,-0.725332 0.02133,-1.6639969 0.04267,-0.9386652 0.064,-1.7706639 0.04267,-0.853332 0.064,-1.279998 h -0.08533 L 78.074316,18.207989 Z m 22.997312,0 -1.109331,-3.626661 h -5.546658 l -1.109332,3.626661 H 86.863651 L 92.239643,2.9120129 h 3.94666 L 101.58363,18.207989 Z M 96.22897,11.871999 95.119638,8.330671 Q 95.012972,7.9680049 94.842305,7.4133391 94.671639,6.8586733 94.500973,6.2826742 94.330306,5.7066752 94.22364,5.2800092 94.116973,5.7066752 93.924973,6.3466741 93.754307,6.9653398 93.583641,7.5413389 93.434308,8.0960047 93.348974,8.330671 l -1.087998,3.541328 z m 11.648,6.33599 h -3.22133 V 5.6640086 h -4.13866 V 2.9760128 h 11.49865 v 2.6879958 h -4.13866 z m 15.25332,0 H 114.3623 V 2.9760128 h 8.76799 V 5.621342 h -5.54666 V 8.97067 h 5.16266 v 2.645329 h -5.16266 v 3.925327 h 5.54666 z"
     id="path1" /><path
     style="color:#000000;-inkscape-font-specification:'Sans, Bold';fill:#000000;-inkscape-stroke:none"
     d="m 51.572266,2.5117188 -5.65625,16.0957032 h 4.33789 l 1.107422,-3.626953 h 4.955078 l 1.109375,3.626953 h 0.296875 4.042969 L 56.085937,2.5117188 Z m 40.384765,0 -5.658203,16.0957032 h 4.337891 l 1.109375,-3.626953 h 4.955078 l 1.109375,3.626953 h 0.294922 4.042971 L 96.46875,2.5117188 Z M 31.679687,2.5761719 V 18.607422 h 4.021485 V 12.037109 H 40.9375 v 6.570313 h 4.021484 V 18.207031 2.5761719 H 40.9375 V 8.5488281 H 35.701172 V 2.5761719 Z m 36.585938,0 V 18.607422 h 3.681641 V 11.125 c 0,-0.519407 -0.01628,-1.10688 -0.04492,-1.765625 -0.0042,-0.096044 -0.0075,-0.1753177 -0.01172,-0.2695312 L 74.8125,18.607422 h 0.296875 3.253906 l 3.210938,-9.7500001 c -0.0064,0.1569223 -0.01023,0.2952849 -0.01758,0.4570312 v 0.00586 0.00391 c -0.01427,0.6281153 -0.02148,1.1863532 -0.02148,1.6738282 v 7.609375 H 85.34375 V 2.5761719 H 80.259766 L 76.708984,13.410156 73.355469,2.5761719 Z m 31.851565,0 v 3.4882812 h 4.13867 V 18.607422 h 4.02148 V 18.207031 6.0644531 h 4.13868 V 2.5761719 Z m 13.8457,0 V 18.607422 h 9.56836 v -0.400391 -3.066406 h -5.54687 v -3.125 h 5.1621 V 8.5703125 h -5.1621 V 6.0214844 h 5.54687 V 2.5761719 Z M 52.138672,3.3125 h 3.380859 l 5.115235,14.496094 h -2.615235 l -1.111328,-3.626953 h -6.138672 l -1.109375,3.626953 h -2.615234 z m 40.384765,0 h 3.378907 l 5.117186,14.496094 h -2.617186 l -1.109375,-3.626953 h -6.138672 l -1.109375,3.626953 h -2.617188 z m -60.042968,0.064453 h 2.419922 v 5.9726563 h 6.83789 V 3.3769531 h 2.421875 V 17.808594 h -2.421875 v -6.570313 h -6.83789 v 6.570313 h -2.419922 z m 36.585937,0 h 3.699219 l 3.605469,11.6464849 h 0.648437 l 3.81836,-11.6464849 h 3.705078 V 17.808594 h -2.207032 v -6.810547 c 0,-0.476806 0.0075,-1.0275625 0.02148,-1.6464845 v -0.00977 c 0.02816,-0.6208425 0.04828,-1.207854 0.0625,-1.7597657 v -0.00977 c 0.02812,-0.5624072 0.05034,-0.9872502 0.06445,-1.2695312 l 0.02148,-0.4199219 H 81.710937 L 77.785156,17.808594 H 75.40625 L 71.734375,5.8613281 h -0.800781 l 0.02148,0.4199219 c 0.01422,0.2844468 0.03601,0.7104087 0.06445,1.2792969 0.0284,0.5678895 0.05558,1.1785659 0.08398,1.8320312 0.02825,0.6496959 0.04297,1.2278309 0.04297,1.7324219 v 6.683594 h -2.080078 z m 31.849614,0 h 10.69921 v 1.8867188 h -4.13867 V 17.808594 h -2.42187 V 5.2636719 h -4.13867 z m 13.8457,0 h 7.96875 v 1.84375 h -5.54688 v 4.1503907 h 5.16211 v 1.8457032 h -5.16211 v 4.724609 h 5.54688 v 1.867188 h -7.96875 z M 53.451172,5.1835937 c -0.06883,0.2753127 -0.166141,0.6260683 -0.292969,1.0488282 l -0.002,0.00391 v 0.00391 c -0.11315,0.4101708 -0.22683,0.8060805 -0.339844,1.1875 l -0.002,0.00391 -0.002,0.00586 c -0.09826,0.3649821 -0.174748,0.6241105 -0.222656,0.7558594 l -0.0039,0.00977 -1.25,4.068359 h 5.052735 l -0.16211,-0.519531 -1.107421,-3.533203 -0.002,-0.00781 C 55.045609,7.967713 54.952988,7.6626415 54.839844,7.2949219 54.72649,6.9265225 54.613396,6.5526314 54.5,6.1699219 54.387417,5.789953 54.297725,5.4604288 54.228516,5.1835937 Z m 40.384765,0 c -0.06883,0.2753132 -0.168093,0.6260681 -0.294921,1.0488282 v 0.00391 l -0.002,0.00391 c -0.11315,0.410171 -0.22683,0.8060803 -0.339843,1.1875 v 0.00391 l -0.002,0.00586 c -0.09826,0.3649819 -0.176701,0.6241115 -0.22461,0.7558594 l -0.0039,0.00977 -1.25,4.068359 h 5.054687 l -0.162109,-0.519531 -1.107422,-3.533203 -0.002,-0.00781 C 95.430375,7.9677122 95.337754,7.6626418 95.224609,7.2949219 95.111256,6.9265227 94.998161,6.5526312 94.884766,6.1699219 94.772182,5.7899534 94.680536,5.4604281 94.611328,5.1835937 Z M 53.841797,6.75 c 0.07858,0.2621373 0.155777,0.5258071 0.234375,0.78125 0.113459,0.3687437 0.204998,0.6727761 0.27539,0.9121094 l 0.002,0.00391 0.947265,3.0253904 h -2.882812 l 0.923828,-3.0058591 0.0039,-0.013672 c 0.06442,-0.1787931 0.140779,-0.4372262 0.238281,-0.7988281 l 0.002,-0.00977 C 53.671271,7.3563621 53.756542,7.0537826 53.841797,6.75 Z m 40.382812,0.00195 c 0.07841,0.2615794 0.157894,0.5243842 0.236328,0.7792969 0.11346,0.3687434 0.205,0.6727769 0.275391,0.9121094 v 0.00391 l 0.949219,3.0253904 h -2.884766 l 0.923828,-3.0058591 0.0059,-0.017578 c 0.06417,-0.1785833 0.139419,-0.4355538 0.236328,-0.7949219 l 0.0039,-0.00977 c 0.08508,-0.2873068 0.16891,-0.589752 0.253906,-0.8925781 z"
     id="path2" /></g></svg>
